<?xml version="1.0" encoding="UTF-8" standalone="no"?>
<svg xmlns="http://www.w3.org/2000/svg" xmlns:xlink="http://www.w3.org/1999/xlink" style="isolation:isolate" viewBox="0 0 527.5 527.5" width="527.5pt" height="527.5pt">
  <defs>
    <clipPath id="_clipPath_hNIM3SjTaLOSy6udZesbxoZnvUWsg9cz"><rect width="527.5" height="527.5"/></clipPath>
  </defs>
  <g clip-path="url(#_clipPath_hNIM3SjTaLOSy6udZesbxoZnvUWsg9cz)"><path
    d=" M 194.557 409.505 L 194.557 396.403 L 233.862 396.403 L 233.862 396.403 Q 244.917 396.403 244.917 385.349 L 244.917 385.349 L 244.917 140.923 L 244.917 140.923 Q 244.917 135.191 242.46 132.53 L 242.46 132.53 L 242.46 132.53 Q 240.003 129.868 233.862 129.868 L 233.862 129.868 L 219.123 129.868 L 219.123 129.868 Q 193.329 129.868 174.496 156.072 L 174.496 156.072 L 174.496 156.072 Q 162.622 172.858 158.528 198.037 L 158.528 198.037 L 158.528 198.037 Q 154.434 223.217 154.434 235.09 L 154.434 235.09 L 142.97 235.09 L 146.245 117.995 L 381.255 117.995 L 384.53 235.09 L 373.066 235.09 L 373.066 235.09 Q 373.066 223.217 368.972 198.037 L 368.972 198.037 L 368.972 198.037 Q 364.878 172.858 353.004 156.072 L 353.004 156.072 L 353.004 156.072 Q 334.171 129.868 308.377 129.868 L 308.377 129.868 L 293.638 129.868 L 293.638 129.868 Q 287.497 129.868 285.04 132.53 L 285.04 132.53 L 285.04 132.53 Q 282.583 135.191 282.583 140.923 L 282.583 140.923 L 282.583 385.349 L 282.583 385.349 Q 282.583 396.403 293.638 396.403 L 293.638 396.403 L 332.943 396.403 L 332.943 409.505 L 194.557 409.505 L 194.557 409.505 Z "
    fill="rgb(255,255,255)"
    fill-opacity="0.9"/>
    <circle cx="263.75000000000006" cy="263.75" r="239.49545704845826" fill="none" stroke-width="25px" stroke="rgb(255,255,255)" stroke-opacity="0.9" stroke-linejoin="miter" stroke-linecap="square" stroke-miterlimit="3"/>
  </g>
</svg>
